HIERARCHY
ROOT Hips
{
 OFFSET 0.000000 0.000000 0.000000
 CHANNELS 6 Xposition Yposition Zposition Yrotation Xrotation Zrotation
 JOINT Chest
 {
  OFFSET 0.000000 9.585900 0.002600
  CHANNELS 3 Yrotation Xrotation Zrotation
  JOINT Chest2
  {
   OFFSET 0.000000 9.601200 -0.005300
   CHANNELS 3 Yrotation Xrotation Zrotation
   JOINT Chest3
   {
    OFFSET 0.000000 9.561800 0.000000
    CHANNELS 3 Yrotation Xrotation Zrotation
    JOINT Chest4
    {
     OFFSET 0.000000 9.552100 0.000000
     CHANNELS 3 Yrotation Xrotation Zrotation
     JOINT Neck
     {
      OFFSET 0.000000 14.453000 0.000000
      CHANNELS 3 Yrotation Xrotation Zrotation
      JOINT Head
      {
       OFFSET 0.000000 8.936500 -0.011300
       CHANNELS 3 Yrotation Xrotation Zrotation
       End Site
       {
        OFFSET 0.000000 17.073600 -0.006000
       }
      }
     }
     JOINT RightCollar
     {
      OFFSET -2.921100 9.558500 0.000000
      CHANNELS 3 Yrotation Xrotation Zrotation
      JOINT RightShoulder
      {
       OFFSET -13.519700 0.000000 0.000000
       CHANNELS 3 Yrotation Xrotation Zrotation
       JOINT RightElbow
       {
        OFFSET 0.000000 -29.696600 0.000000
        CHANNELS 3 Yrotation Xrotation Zrotation
        JOINT RightWrist
        {
         OFFSET 0.000000 -24.004700 0.000000
         CHANNELS 3 Yrotation Xrotation Zrotation
         End Site
         {
          OFFSET 0.000000 -17.728500 0.000000
         }
        }
       }
      }
     }
     JOINT LeftCollar
     {
      OFFSET 2.921100 9.558500 0.000000
      CHANNELS 3 Yrotation Xrotation Zrotation
      JOINT LeftShoulder
      {
       OFFSET 13.519700 0.000000 0.000000
       CHANNELS 3 Yrotation Xrotation Zrotation
       JOINT LeftElbow
       {
        OFFSET 0.000000 -29.696600 0.000000
        CHANNELS 3 Yrotation Xrotation Zrotation
        JOINT LeftWrist
        {
         OFFSET 0.000000 -24.004700 0.000000
         CHANNELS 3 Yrotation Xrotation Zrotation
         End Site
         {
          OFFSET 0.000000 -17.728500 0.000000
         }
        }
       }
      }
     }
    }
   }
  }
 }
 JOINT RightHip
 {
  OFFSET -7.771700 -0.012900 -0.001300
  CHANNELS 3 Yrotation Xrotation Zrotation
  JOINT RightKnee
  {
   OFFSET 0.000000 -40.869800 0.001200
   CHANNELS 3 Yrotation Xrotation Zrotation
   JOINT RightAnkle
   {
    OFFSET 0.000000 -39.717900 0.002100
    CHANNELS 3 Yrotation Xrotation Zrotation
    JOINT RightToe
    {
     OFFSET 0.000000 -4.965400 11.033500
     CHANNELS 3 Yrotation Xrotation Zrotation
     End Site
     {
      OFFSET 0.000000 -1.423100 5.872300
     }
    }
   }
  }
 }
 JOINT LeftHip
 {
  OFFSET 7.771700 -0.012900 -0.001300
  CHANNELS 3 Yrotation Xrotation Zrotation
  JOINT LeftKnee
  {
   OFFSET 0.000000 -40.869800 0.001200
   CHANNELS 3 Yrotation Xrotation Zrotation
   JOINT LeftAnkle
   {
    OFFSET 0.000000 -39.717900 0.002100
    CHANNELS 3 Yrotation Xrotation Zrotation
    JOINT LeftToe
    {
     OFFSET 0.000000 -4.965400 11.033500
     CHANNELS 3 Yrotation Xrotation Zrotation
     End Site
     {
      OFFSET 0.000000 -1.423100 5.872300
     }
    }
   }
  }
 }
}
MOTION
Frames: 12
Frame Time: 0.008333
6.115817 49.202263 44.035995 174.663567 -33.641537 -7.264668 5.892617 17.750640 6.468786 0.590133 2.158603 0.587757 1.021890 3.581204 0.999400 5.041734 15.503040 4.945677 -2.045253 15.214848 2.491191 -4.743759 -7.347975 5.400479 -1.444972 -2.945015 -3.659610 5.617385 -1.929148 1.846862 91.714690 -81.321583 -100.088138 2.382325 -1.241455 9.838051 -9.214425 -1.867158 -0.664659 0.597454 -0.459098 -2.340741 -120.110881 -73.989296 131.339985 13.199834 -0.452110 -16.812365 1.576757 -47.179155 9.180979 -106.295662 84.931980 -94.882903 -2.076523 -10.939400 -2.448644 -0.168046 0.440463 -0.105869 -11.119275 -50.851999 16.150585 -152.845121 80.797651 -160.199778 0.827248 -14.828914 7.096863 -0.099074 -0.711289 0.013437
6.140447 49.265434 44.023081 174.729632 -33.563304 -7.346516 5.865656 17.691565 6.527294 0.591232 2.158129 0.588490 1.020993 3.580173 0.999174 5.026982 15.494151 4.939617 -2.043411 15.311472 2.489403 -4.787063 -7.277388 5.389162 -1.436068 -2.905141 -3.649164 5.589619 -1.956355 1.808003 91.943914 -81.370536 -100.319293 2.392390 -1.201572 9.950853 -9.246714 -1.814848 -0.653380 0.594090 -0.492758 -2.367879 -120.026022 -73.887076 131.364379 13.004720 -0.250841 -17.282316 1.476306 -47.234088 9.273970 -106.220317 84.898863 -94.798621 -2.076663 -11.016705 -2.445135 -0.173853 0.490576 -0.107025 -11.244347 -50.880466 16.258087 -152.801062 80.820449 -160.157583 0.851434 -14.771449 7.093685 -0.148451 -0.772338 -0.007037
6.162917 49.324002 44.007163 174.838096 -33.516631 -7.443354 5.804331 17.669091 6.579608 0.610877 2.175101 0.598877 1.054278 3.618591 1.019706 4.977749 15.452150 4.917535 -2.074661 15.320432 2.478295 -4.820252 -7.148308 5.365805 -1.444687 -2.893977 -3.648349 5.551102 -1.982760 1.776473 92.225411 -81.409849 -100.605040 2.396810 -1.155315 10.103355 -9.283829 -1.834768 -0.657176 0.590859 -0.433160 -2.425385 -120.049257 -73.732525 131.494202 12.760061 0.027180 -17.896544 1.361872 -47.226825 9.337406 -106.050905 84.892933 -94.597856 -2.095372 -11.127884 -2.481180 -0.130846 0.561695 -0.085172 -11.375000 -50.883642 16.328765 -152.775851 80.835716 -160.123462 0.872184 -14.749094 7.081701 -0.174055 -0.796439 -0.035266
6.176838 49.376309 43.989779 174.930415 -33.491379 -7.491879 5.792975 17.712963 6.627910 0.592231 2.150436 0.587971 1.042492 3.621989 1.021324 4.977487 15.467388 4.926959 -2.108175 15.300984 2.455453 -4.850224 -7.020794 5.336157 -1.422448 -2.868121 -3.633189 5.480728 -2.043185 1.710505 92.531497 -81.445074 -100.917042 2.414489 -1.115337 10.283423 -9.340912 -1.849359 -0.666847 0.635778 -0.448349 -2.460541 -120.005663 -73.610942 131.546222 12.467757 0.383583 -18.668456 1.299489 -47.214749 9.303559 -106.370658 84.941943 -94.853555 -2.134059 -11.208778 -2.552267 -0.086272 0.574059 -0.056492 -11.428017 -50.881344 16.314714 -152.744800 80.847204 -160.075080 0.903765 -14.722928 7.052045 -0.192807 -0.831343 -0.032303
6.186006 49.419016 43.978538 174.954618 -33.444553 -7.494729 5.781251 17.691808 6.628667 0.627084 2.209247 0.616171 1.016356 3.587788 1.005203 4.954375 15.443198 4.913731 -2.117567 15.366787 2.447668 -4.875802 -6.939731 5.302357 -1.416628 -2.869884 -3.632492 5.450627 -2.036358 1.678269 92.782805 -81.469376 -101.161340 2.460915 -1.082997 10.472110 -9.366651 -1.825525 -0.671518 0.667514 -0.480686 -2.477969 -119.878811 -73.493826 131.536973 12.125974 0.812162 -19.601453 1.289270 -47.248093 9.254891 -106.623724 84.972635 -95.068734 -2.109496 -11.245010 -2.584615 -0.104680 0.583278 -0.062755 -11.426215 -50.911566 16.299371 -152.843307 80.861264 -160.163000 0.900396 -14.705563 7.049821 -0.209101 -0.859250 -0.041517
6.188666 49.453744 43.971431 174.989071 -33.380137 -7.485124 5.774552 17.678827 6.629493 0.623736 2.221658 0.619831 1.006215 3.576990 0.999029 4.945686 15.446243 4.912342 -2.136112 15.408796 2.428872 -4.905548 -6.868410 5.268234 -1.418523 -2.900346 -3.640494 5.431007 -2.044843 1.659084 93.176172 -81.475580 -101.584564 2.563789 -0.995554 10.716262 -9.379205 -1.822138 -0.678700 0.683459 -0.525594 -2.497930 -119.697902 -73.354144 131.483377 11.730263 1.310540 -20.688194 1.283327 -47.305922 9.192101 -106.885034 84.985341 -95.305300 -2.114115 -11.277937 -2.599393 -0.090431 0.586183 -0.067214 -11.422146 -50.962079 16.266203 -153.028212 80.887756 -160.348724 0.866695 -14.700430 7.063739 -0.225108 -0.866053 -0.047718
6.191011 49.483104 43.967232 174.997151 -33.317274 -7.478192 5.806901 17.707121 6.670961 0.602889 2.175619 0.598794 1.005484 3.579382 0.998798 4.961388 15.503872 4.934842 -2.179335 15.460190 2.387764 -4.936102 -6.869755 5.242973 -1.410262 -2.923010 -3.663910 5.369555 -2.097103 1.635060 93.737328 -81.454904 -102.179041 2.703527 -0.863425 11.008267 -9.403249 -1.825604 -0.697034 0.813468 -0.622320 -2.537302 -119.549215 -73.176815 131.347431 11.278837 1.874852 -21.905547 1.276351 -47.370396 9.157476 -107.102306 84.999642 -95.512192 -2.097051 -11.298712 -2.599659 -0.155683 0.582381 -0.077034 -11.423357 -51.019232 16.260893 -153.060977 80.894779 -160.379678 0.861931 -14.692131 7.070924 -0.240189 -0.876623 -0.060991
6.189532 49.509020 43.962443 175.001598 -33.272833 -7.460108 5.812517 17.707227 6.675952 0.603235 2.177525 0.598576 1.001147 3.570141 0.992263 4.953715 15.496349 4.926323 -2.191733 15.543934 2.373619 -4.973434 -6.832104 5.213715 -1.398104 -2.913637 -3.674340 5.327391 -2.105517 1.642276 94.313084 -81.409938 -102.798555 2.887197 -0.672365 11.361553 -9.397624 -1.785765 -0.690285 0.924438 -0.698034 -2.557203 -119.343432 -73.016832 131.173042 10.765868 2.498770 -23.232115 1.255307 -47.419876 9.097872 -107.588790 85.027210 -95.984864 -2.039076 -11.328811 -2.611164 -0.199484 0.589311 -0.106842 -11.406558 -51.061840 16.233999 -153.067550 80.901703 -160.387199 0.878981 -14.658490 7.079815 -0.264452 -0.912627 -0.077790
6.181868 49.529333 43.960167 174.980281 -33.222265 -7.401474 5.817353 17.680392 6.636293 0.603651 2.178476 0.598483 0.996951 3.559444 0.985928 4.961171 15.510588 4.931517 -2.203009 15.598807 2.359437 -4.994968 -6.841411 5.205396 -1.392452 -2.916539 -3.685296 5.303458 -2.118237 1.650133 95.299453 -81.329602 -103.907306 3.107440 -0.334401 11.860988 -9.384276 -1.722638 -0.672549 1.012991 -0.808186 -2.576395 -119.093980 -72.864597 130.976929 10.176066 3.184349 -24.665807 1.188097 -47.477608 9.011401 -108.273762 85.068890 -96.695693 -1.873299 -11.309980 -2.654460 -0.250596 0.549261 -0.138786 -11.343258 -51.119164 16.177725 -153.037866 80.902926 -160.366238 0.860745 -14.646933 7.078105 -0.244908 -0.923789 -0.068511
6.179235 49.548048 43.958253 174.974059 -33.186796 -7.385930 5.823368 17.667119 6.635158 0.604147 2.179400 0.598400 1.007595 3.585307 0.998164 4.999741 15.548312 4.948888 -2.261297 15.582542 2.325218 -5.063233 -6.759282 5.163953 -1.441025 -2.999625 -3.712994 5.293699 -2.114603 1.660478 96.189494 -81.247063 -104.900865 3.388268 0.066385 12.426629 -9.416658 -1.737032 -0.660142 1.103510 -0.917848 -2.597212 -118.832409 -72.724341 130.779325 9.496538 3.942075 -26.225184 1.162832 -47.519544 8.993548 -108.531894 85.069784 -96.961110 -1.861009 -11.338045 -2.649149 -0.261337 0.560825 -0.146912 -11.334520 -51.152963 16.178872 -153.037295 80.903703 -160.381669 0.848870 -14.652400 7.094769 -0.249895 -0.921835 -0.081963
6.178977 49.564030 43.958024 174.963167 -33.153528 -7.383187 5.864298 17.711974 6.688686 0.592990 2.138596 0.577211 1.011474 3.586684 0.998146 5.030569 15.560771 4.955632 -2.310409 15.593727 2.300693 -5.140178 -6.686557 5.125588 -1.460407 -3.034253 -3.739290 5.255749 -2.087812 1.722611 97.254143 -81.100310 -106.056742 3.731853 0.548681 13.083178 -9.455234 -1.757170 -0.653322 1.201806 -0.997445 -2.608255 -118.633842 -72.616642 130.649888 8.722608 4.806371 -27.942465 1.122266 -47.557116 8.994735 -108.729803 85.051607 -97.155112 -1.828611 -11.374574 -2.661833 -0.238423 0.585845 -0.157720 -11.339487 -51.186813 16.199620 -153.009460 80.898520 -160.358481 0.842110 -14.659351 7.099872 -0.246713 -0.916359 -0.080625
6.178388 49.577298 43.958926 174.944691 -33.121070 -7.372155 5.891259 17.715928 6.705976 0.613103 2.182988 0.599026 1.000338 3.549183 0.982357 5.051778 15.557703 4.953843 -2.351011 15.614242 2.280508 -5.176885 -6.697822 5.122553 -1.419799 -3.057920 -3.770081 5.177208 -2.078273 1.766666 98.235236 -80.942841 -107.152705 4.136574 1.128162 13.863461 -9.488971 -1.763534 -0.641201 1.296077 -1.085196 -2.626931 -118.636388 -72.581710 130.702688 7.841141 5.827606 -29.851411 1.036443 -47.589016 9.016466 -108.874557 85.001056 -97.305568 -1.793648 -11.413377 -2.704509 -0.228344 0.598565 -0.140819 -11.328913 -51.220989 16.213757 -152.982291 80.895376 -160.339358 0.839771 -14.673365 7.107514 -0.253482 -0.904795 -0.082685
